<svg width="24" height="24" viewBox="0 0 24 24" fill="none" xmlns="http://www.w3.org/2000/svg">
<path d="M12.16 1.6001C12.7905 1.6001 13.3951 1.84359 13.8409 2.27701C14.2867 2.71042 14.5371 3.29826 14.5371 3.91121C14.5371 4.52415 14.2867 5.11199 13.8409 5.54541C13.3951 5.97883 12.7905 6.22232 12.16 6.22232C11.5295 6.22232 10.9249 5.97883 10.4791 5.54541C10.0333 5.11199 9.78286 4.52415 9.78286 3.91121C9.78286 3.29826 10.0333 2.71042 10.4791 2.27701C10.9249 1.84359 11.5295 1.6001 12.16 1.6001ZM10.3771 7.37788H13.9429C14.5733 7.37788 15.178 7.62137 15.6238 8.05478C16.0696 8.4882 16.32 9.07604 16.32 9.68899V16.0445H14.5371V22.4001H9.78286V16.0445H8V9.68899C8 9.07604 8.25045 8.4882 8.69625 8.05478C9.14205 7.62137 9.74669 7.37788 10.3771 7.37788Z" fill="#939598"/>
</svg>
