<svg width="24" height="24" viewBox="0 0 24 24" fill="none" xmlns="http://www.w3.org/2000/svg">
<path d="M9.66482 5.6752C9.66482 4.30827 10.7568 3.2002 12.104 3.2002C13.4511 3.2002 14.5431 4.30827 14.5431 5.6752C14.5431 7.04208 13.4511 8.15019 12.104 8.15019C10.7568 8.15019 9.66482 7.04208 9.66482 5.6752ZM18.2908 5.72239C17.8675 5.29281 17.181 5.29281 16.7577 5.72239L13.823 8.70019H10.3848L7.45019 5.72239C7.02687 5.29281 6.34045 5.29281 5.91713 5.72239C5.49377 6.15198 5.49377 6.84845 5.91713 7.27803L9.12279 10.5308V19.7002C9.12279 20.3077 9.60815 20.8002 10.2069 20.8002H10.7489C11.3476 20.8002 11.8329 20.3077 11.8329 19.7002V15.8502H12.375V19.7002C12.375 20.3077 12.8603 20.8002 13.459 20.8002H14.0011C14.5998 20.8002 15.0851 20.3077 15.0851 19.7002V10.5308L18.2908 7.278C18.7141 6.84841 18.7141 6.15198 18.2908 5.72239V5.72239Z" fill="#939598"/>
</svg>
