<svg width="24" height="24" viewBox="0 0 24 24" fill="none" xmlns="http://www.w3.org/2000/svg">
<path d="M11.9996 9C13.4731 9 14.6666 7.88125 14.6666 6.5C14.6666 5.11875 13.4731 4 11.9996 4C10.5261 4 9.33267 5.11875 9.33267 6.5C9.33267 7.88125 10.5261 9 11.9996 9ZM10.2194 16.775L11.0729 15.775L9.02263 14.175L7.49246 15.9687C7.11242 16.4125 7.10242 17.0437 7.46579 17.5L9.06597 19.5C9.32933 19.8281 9.72938 20 10.1328 20C10.4095 20 10.6928 19.9187 10.9329 19.75C11.5229 19.3375 11.6396 18.5531 11.1995 18L10.2194 16.775ZM14.9766 14.175L12.9264 15.775L13.7798 16.775L12.7997 18C12.3597 18.5531 12.4764 19.3375 13.0664 19.75C13.3065 19.9187 13.5865 20 13.8665 20C14.2732 20 14.6733 19.8281 14.9333 19.5L16.5335 17.5C16.8969 17.0437 16.8869 16.4125 16.5068 15.9687L14.9766 14.175V14.175ZM18.157 8.53125C17.7336 7.96562 16.9035 7.83125 16.3001 8.225L14.9466 9.11562C13.1898 10.2719 10.8062 10.2719 9.05264 9.11562L7.69915 8.22812C7.09575 7.83125 6.26565 7.96875 5.84227 8.53125C5.41889 9.09687 5.56557 9.875 6.16564 10.2719L7.51913 11.1625C8.08586 11.5344 8.69926 11.8156 9.33267 12.0344V13H14.6666V12.0375C15.3 11.8187 15.9134 11.5375 16.4801 11.1656L17.8336 10.275C18.437 9.875 18.5804 9.09687 18.157 8.53125Z" fill="#939598"/>
</svg>
